# xmcd
# 
# Track frame offsets:
#     150
#     10800
#     31055
#     49300
#     61243
#     79430
#     86341
#     104870
#     121085
#     134787
#     156549
#     182035
# 
# Disc length: 2569
# 
# Revision: 1
# Processed by: cddbd v1.5.2PL0 Copyright (c) Steve Scherf et al.
# Submitted via: fre:ac v1.0.17
# 
DISCID=a50a070c
DTITLE=Las Hermanas Caronni - Navega Mundos
DYEAR=2015
DGENRE=Jazz
TTITLE0=Agua De Rio
TTITLE1=La Mélodie Des Choses
TTITLE2=Maria
TTITLE3=La Chica Del 17
TTITLE4=Macondo
TTITLE5=Amanece
TTITLE6=Spanish Caravan
TTITLE7=El Español
TTITLE8=Turchinsky Canzonetta
TTITLE9=Cansino
TTITLE10=Preludio Y Habanera
TTITLE11=Ya Me Voy
EXTD=YEAR: 2015
EXTT0=
EXTT1=
EXTT2=
EXTT3=
EXTT4=
EXTT5=
EXTT6=
EXTT7=
EXTT8=
EXTT9=
EXTT10=
EXTT11=
PLAYORDER=
